# xmcd
#
# Track frame offsets: 
#        150
#        14440
#        30260
#        46808
#        63810
#        76283
#        88345
#        101523
#        117828
#        130153
#        143655
#        159345
#        172225
#        186075
#
# Disc length: 2674 seconds
#
# Revision: 2
# Processed by: cddbd v1.5.2PL0 Copyright (c) Steve Scherf et al.
# Submitted via: ExactAudioCopy v0.99pb3
#
DISCID=ac0a700e
DTITLE=John Lee Hooker - Wandering Blues
DYEAR=1994
DGENRE=Blues
TTITLE0=Stomp Boogie
TTITLE1=Black Man Blues
TTITLE2=Helpless Blues
TTITLE3=Goin' Mad Blues
TTITLE4=Morning Blues
TTITLE5=Rock N' Roll
TTITLE6=No Friend Around
TTITLE7=Low Down Midnight Boogie
TTITLE8=House Rent Boogie
TTITLE9=Wandering Blues
TTITLE10=Landing Blues
TTITLE11=My Baby's Got Something
TTITLE12=Decoration Day Blues
TTITLE13=Do The Boogie
EXTD=YEAR: 1994 ID3G: 0
EXTT0=
EXTT1=
EXTT2=
EXTT3=
EXTT4=
EXTT5=
EXTT6=
EXTT7=
EXTT8=
EXTT9=
EXTT10=
EXTT11=
EXTT12=
EXTT13=
PLAYORDER=
